<?xml version="1.0" encoding="UTF-8" standalone="no"?>
<svg width="400px" height="125px" viewBox="0 0 400 125" version="1.1" xmlns="http://www.w3.org/2000/svg" xmlns:xlink="http://www.w3.org/1999/xlink">
    <!-- Generator: Sketch 41.2 (35397) - http://www.bohemiancoding.com/sketch -->
    <title>Page 1</title>
    <desc>Created with Sketch.</desc>
    <defs>
        <polygon id="path-1" points="0 124.554 399.948 124.554 399.948 0 0 0"></polygon>
    </defs>
    <g id="R2" stroke="none" stroke-width="1" fill="none" fill-rule="evenodd">
        <g id="Brand-&amp;-Colors" transform="translate(-113.000000, -118.000000)">
            <g id="Page-1" transform="translate(113.000000, 118.000000)">
                <path d="M72.34,0.1294 L72.34,106.6094 L62.67,106.6094 L62.67,97.9494 C58.27,102.2494 52.8,105.4294 46.7,107.1094 C46.64,107.1294 46.59,107.1394 46.53,107.1594 C45.93,107.3294 45.33,107.4894 44.72,107.6194 C44.55,107.6594 44.37,107.6994 44.19,107.7394 C43.33,107.9094 42.46,108.0494 41.59,108.1594 C41.41,108.1894 41.22,108.2094 41.04,108.2194 C40.79,108.2594 40.54,108.2794 40.29,108.2994 C39.17,108.4094 38.04,108.4594 36.89,108.4594 C16.52,108.4594 0,91.9394 0,71.5694 C0,63.2994 2.72,55.6694 7.32,49.5194 C7.32,49.5094 7.33,49.5094 7.33,49.4994 C14.06,40.5094 24.8,34.6894 36.89,34.6894 C45.91,34.6894 54.18,37.9394 60.6,43.3194 C61.31,43.9194 62,44.5394 62.67,45.1894 L62.67,0.1294 L72.34,0.1294 Z" id="Fill-1" fill="#474747"></path>
                <path d="M86.88,4.8494 C86.14,4.1794 85.32,3.8394 84.43,3.8394 C83.53,3.8394 82.71,4.1794 81.96,4.8494 C81.22,5.5194 80.85,6.3794 80.85,7.4194 C80.85,8.4594 81.22,9.3194 81.96,9.9894 C82.71,10.6694 83.53,10.9994 84.43,10.9994 C85.32,10.9994 86.14,10.6694 86.88,9.9894 C87.63,9.3194 88,8.4594 88,7.4194 C88,6.3794 87.63,5.5194 86.88,4.8494 L86.88,4.8494 Z M81.96,52.1694 L86.88,52.1694 L86.88,17.2594 L81.96,17.2594 L81.96,52.1694 Z" id="Fill-3" fill="#474747"></path>
                <path d="M145.44,4.7195 C144.69,4.0495 143.87,3.7095 142.98,3.7095 C142.08,3.7095 141.26,4.0495 140.51,4.7195 C139.77,5.3895 139.4,6.2495 139.4,7.2895 C139.4,8.3395 139.77,9.1895 140.51,9.8695 C141.26,10.5395 142.08,10.8695 142.98,10.8695 C143.87,10.8695 144.69,10.5395 145.44,9.8695 C146.18,9.1895 146.55,8.3395 146.55,7.2895 C146.55,6.2495 146.18,5.3895 145.44,4.7195 L145.44,4.7195 Z M140.51,52.1695 L145.44,52.1695 L145.44,17.2595 L140.51,17.2595 L140.51,52.1695 Z" id="Fill-5" fill="#474747"></path>
                <path d="M173.4,47.2495 C172.66,47.6395 171.84,47.9695 170.94,48.2095 C170.05,48.4695 169.17,48.5895 168.33,48.5895 C167.58,48.5895 166.9,48.4995 166.28,48.3295 C165.66,48.1495 165.12,47.8395 164.68,47.3995 C164.23,46.9495 163.88,46.3095 163.63,45.4895 C163.38,44.6695 163.26,43.6195 163.26,42.3195 L163.26,21.7395 L173.32,21.7395 L173.32,17.2595 L163.26,17.2595 L163.26,7.4195 L158.34,7.4195 L158.34,17.2595 L150.95,17.2595 L150.95,21.7395 L158.34,21.7395 L158.34,43.7395 C158.34,45.6795 158.61,47.2495 159.16,48.4395 C159.7,49.6295 160.4,50.5795 161.25,51.2695 C162.09,51.9695 163.02,52.4395 164.04,52.6895 C165.06,52.9395 166.04,53.0595 166.99,53.0595 C169.57,53.0595 171.78,52.6395 173.63,51.7995 L173.4,47.2495 Z" id="Fill-7" fill="#474747"></path>
                <path d="M201.48,37.3294 C201.48,38.8694 201.27,40.3194 200.85,41.6894 C200.42,43.0594 199.77,44.2494 198.87,45.2694 C197.98,46.2894 196.87,47.0994 195.55,47.6894 C194.23,48.2894 192.68,48.5894 190.89,48.5894 C189.89,48.5894 188.92,48.4794 187.95,48.2494 C186.97,48.0294 186.09,47.6594 185.3,47.1294 C184.5,46.6094 183.87,45.9394 183.39,45.1194 C182.92,44.2994 182.69,43.3194 182.69,42.1794 C182.69,40.4394 183.3,39.0694 184.52,38.0694 C185.73,37.0794 187.2,36.3494 188.92,35.8694 C190.63,35.3994 192.42,35.0994 194.28,34.9794 C196.15,34.8594 197.7,34.7894 198.94,34.7894 L201.48,34.7894 L201.48,37.3294 Z M206.59,48.5494 C206.46,47.0894 206.4,45.6794 206.4,44.3394 L206.4,28.7494 C206.4,26.6094 206.06,24.7694 205.36,23.2294 C204.66,21.6894 203.74,20.4094 202.6,19.3894 C201.46,18.3694 200.1,17.6094 198.54,17.1194 C196.97,16.6194 195.34,16.3694 193.65,16.3694 C187.09,16.3694 182.17,18.0594 178.88,21.4394 L181.86,24.9494 C184.9,22.2094 188.46,20.8394 192.53,20.8394 C198.5,20.8394 201.48,23.8594 201.48,29.8694 L201.48,30.7694 L199.02,30.7694 C196.93,30.7694 194.63,30.8694 192.12,31.0594 C189.61,31.2594 187.25,31.7594 185.04,32.5594 C182.82,33.3494 180.98,34.5594 179.51,36.1694 C178.05,37.7894 177.32,40.0094 177.32,42.8494 C177.32,44.5394 177.65,46.0094 178.33,47.2794 C178.99,48.5494 179.89,49.6194 181.01,50.4894 C182.12,51.3594 183.41,52.0094 184.85,52.4294 C186.29,52.8494 187.78,53.0594 189.32,53.0594 C192.16,53.0594 194.55,52.5494 196.52,51.5294 C198.49,50.5094 200.19,48.8394 201.63,46.4994 L201.78,46.4994 C201.78,47.4494 201.81,48.4094 201.89,49.4094 C201.97,50.4094 202.07,51.3294 202.23,52.1694 L207,52.1694 C206.85,51.2294 206.71,50.0194 206.59,48.5494 L206.59,48.5494 Z" id="Fill-9" fill="#474747"></path>
                <mask id="mask-2" fill="white">
                    <use xlink:href="#path-1"></use>
                </mask>
                <g id="Clip-12"></g>
                <polygon id="Fill-11" fill="#474747" mask="url(#mask-2)" points="216.31 52.169 221.24 52.169 221.24 -0.001 216.31 -0.001"></polygon>
                <path d="M64.7147,71.5722 C64.7147,86.9412 52.2557,99.4002 36.8867,99.4002 C21.5177,99.4002 9.0587,86.9412 9.0587,71.5722 C9.0587,56.2032 21.5177,43.7442 36.8867,43.7442 C52.2557,43.7442 64.7147,56.2032 64.7147,71.5722" id="Fill-13" fill="#F6D617" mask="url(#mask-2)"></path>
                <path d="M106.4275,85.1759 C106.3785,82.5419 105.5595,80.4659 103.9695,78.9489 C102.3735,77.4309 100.1635,76.6729 97.3295,76.6729 C94.6465,76.6729 92.5165,77.4469 90.9505,78.9849 C89.3845,80.5269 88.4255,82.5899 88.0795,85.1759 L106.4275,85.1759 Z M88.0795,91.8889 C88.3775,94.5739 89.4215,96.6619 91.2115,98.1519 C93.0025,99.6449 95.1685,100.3919 97.6995,100.3919 C99.9395,100.3919 101.8145,99.9309 103.3325,99.0109 C104.8495,98.0919 106.1785,96.9349 107.3255,95.5419 L113.7355,100.3919 C111.6475,102.9769 109.3105,104.8159 106.7245,105.9089 C104.1395,107.0009 101.4325,107.5509 98.5985,107.5509 C95.9095,107.5509 93.3785,107.1019 90.9875,106.2089 C88.6015,105.3139 86.5385,104.0459 84.8025,102.4039 C83.0605,100.7619 81.6765,98.7869 80.6635,96.4739 C79.6435,94.1649 79.1335,91.5909 79.1335,88.7569 C79.1335,85.9229 79.6435,83.3489 80.6635,81.0369 C81.6765,78.7239 83.0605,76.7489 84.8025,75.1069 C86.5385,73.4679 88.6015,72.1999 90.9875,71.3039 C93.3785,70.4089 95.9095,69.9629 98.5985,69.9629 C101.0805,69.9629 103.3565,70.3969 105.4195,71.2679 C107.4835,72.1389 109.2495,73.3919 110.7185,75.0339 C112.1815,76.6729 113.3285,78.6999 114.1475,81.1129 C114.9675,83.5249 115.3795,86.2959 115.3795,89.4279 L115.3795,91.8889 L88.0795,91.8889 Z" id="Fill-14" fill="#474747" mask="url(#mask-2)"></path>
                <path d="M121.9894,70.8583 L130.4924,70.8583 L130.4924,76.4513 L130.6444,76.4513 C131.4334,74.7613 132.7204,73.2553 134.4804,71.9383 C136.2464,70.6213 138.6194,69.9633 141.6054,69.9633 C147.2254,69.9633 150.9524,72.1753 152.7914,76.6003 C154.0844,74.3113 155.6984,72.6363 157.6404,71.5653 C159.5774,70.4973 161.8894,69.9633 164.5784,69.9633 C166.9634,69.9633 168.9784,70.3603 170.6174,71.1553 C172.2564,71.9503 173.5854,73.0463 174.6044,74.4363 C175.6244,75.8293 176.3584,77.4553 176.8084,79.3223 C177.2574,81.1853 177.4754,83.1883 177.4754,85.3243 L177.4754,106.6553 L168.5294,106.6553 L168.5294,86.3683 C168.5294,85.2763 168.4264,84.2203 168.2324,83.2003 C168.0314,82.1803 167.6794,81.2853 167.1884,80.5143 C166.6904,79.7443 166.0164,79.1343 165.1734,78.6873 C164.3294,78.2413 163.2304,78.0173 161.8894,78.0173 C160.4994,78.0173 159.3164,78.2783 158.3514,78.8003 C157.3804,79.3223 156.5844,80.0203 155.9594,80.8883 C155.3404,81.7593 154.8914,82.7513 154.6184,83.8713 C154.3454,84.9913 154.2114,86.1223 154.2114,87.2643 L154.2114,106.6553 L145.2594,106.6553 L145.2594,85.3243 C145.2594,83.0883 144.7864,81.3093 143.8454,79.9923 C142.8984,78.6753 141.3324,78.0173 139.1414,78.0173 C137.6544,78.0173 136.3984,78.2663 135.3784,78.7633 C134.3584,79.2613 133.5154,79.9323 132.8414,80.7753 C132.1674,81.6223 131.6884,82.5903 131.3844,83.6863 C131.0874,84.7783 130.9414,85.9223 130.9414,87.1153 L130.9414,106.6553 L121.9894,106.6553 L121.9894,70.8583 Z" id="Fill-15" fill="#474747" mask="url(#mask-2)"></path>
                <path d="M192.7765,88.7569 C192.7765,90.1499 193.0135,91.4909 193.4865,92.7839 C193.9605,94.0769 194.6515,95.2209 195.5745,96.2129 C196.4975,97.2089 197.6015,98.0039 198.8945,98.6019 C200.1875,99.1959 201.6555,99.4969 203.2945,99.4969 C204.9335,99.4969 206.4025,99.1959 207.6955,98.6019 C208.9875,98.0039 210.0925,97.2089 211.0145,96.2129 C211.9315,95.2209 212.6295,94.0769 213.1025,92.7839 C213.5705,91.4909 213.8065,90.1499 213.8065,88.7569 C213.8065,87.3639 213.5705,86.0229 213.1025,84.7299 C212.6295,83.4369 211.9315,82.2929 211.0145,81.2979 C210.0925,80.3049 208.9875,79.5069 207.6955,78.9119 C206.4025,78.3149 204.9335,78.0169 203.2945,78.0169 C201.6555,78.0169 200.1875,78.3149 198.8945,78.9119 C197.6015,79.5069 196.4975,80.3049 195.5745,81.2979 C194.6515,82.2929 193.9605,83.4369 193.4865,84.7299 C193.0135,86.0229 192.7765,87.3639 192.7765,88.7569 M183.8305,88.7569 C183.8305,85.9229 184.3405,83.3489 185.3595,81.0369 C186.3735,78.7239 187.7575,76.7489 189.4995,75.1069 C191.2345,73.4679 193.2985,72.1999 195.6835,71.3049 C198.0755,70.4089 200.6055,69.9629 203.2945,69.9629 C205.9775,69.9629 208.5145,70.4089 210.8995,71.3049 C213.2845,72.1999 215.3485,73.4679 217.0905,75.1069 C218.8325,76.7489 220.2105,78.7239 221.2295,81.0369 C222.2495,83.3489 222.7595,85.9229 222.7595,88.7569 C222.7595,91.5909 222.2495,94.1649 221.2295,96.4739 C220.2105,98.7869 218.8325,100.7619 217.0905,102.4039 C215.3485,104.0459 213.2845,105.3139 210.8995,106.2089 C208.5145,107.1019 205.9775,107.5509 203.2945,107.5509 C200.6055,107.5509 198.0755,107.1019 195.6835,106.2089 C193.2985,105.3139 191.2345,104.0459 189.4995,102.4039 C187.7575,100.7619 186.3735,98.7869 185.3595,96.4739 C184.3405,94.1649 183.8305,91.5909 183.8305,88.7569" id="Fill-16" fill="#474747" mask="url(#mask-2)"></path>
                <path d="M253.713,81.595 C252.669,80.503 251.577,79.632 250.429,78.985 C249.288,78.342 248.117,78.017 246.927,78.017 C245.289,78.017 243.82,78.315 242.527,78.912 C241.234,79.507 240.13,80.305 239.207,81.298 C238.285,82.293 237.593,83.437 237.119,84.73 C236.646,86.023 236.409,87.364 236.409,88.757 C236.409,90.15 236.646,91.491 237.119,92.784 C237.593,94.077 238.285,95.221 239.207,96.213 C240.13,97.208 241.234,98.004 242.527,98.601 C243.82,99.196 245.289,99.497 246.927,99.497 C248.317,99.497 249.61,99.211 250.806,98.638 C251.995,98.067 253.015,97.233 253.865,96.14 L259.831,102.553 C258.933,103.448 257.901,104.219 256.736,104.865 C255.564,105.511 254.387,106.033 253.191,106.431 C251.995,106.828 250.854,107.114 249.762,107.29 C248.663,107.463 247.723,107.551 246.927,107.551 C244.239,107.551 241.708,107.102 239.316,106.209 C236.931,105.314 234.868,104.046 233.132,102.404 C231.39,100.762 230.006,98.786 228.992,96.474 C227.973,94.165 227.463,91.591 227.463,88.757 C227.463,85.922 227.973,83.349 228.992,81.037 C230.006,78.724 231.39,76.749 233.132,75.107 C234.868,73.468 236.931,72.2 239.316,71.304 C241.708,70.409 244.239,69.963 246.927,69.963 C249.216,69.963 251.516,70.397 253.822,71.268 C256.135,72.139 258.162,73.517 259.904,75.407 L253.713,81.595 Z" id="Fill-17" fill="#474747" mask="url(#mask-2)"></path>
                <path d="M264.1523,70.8583 L273.0983,70.8583 L273.0983,76.5243 L273.2503,76.5243 C274.2393,74.4363 275.6603,72.8213 277.4993,71.6773 C279.3383,70.5333 281.4503,69.9633 283.8413,69.9633 C284.3873,69.9633 284.9213,70.0113 285.4433,70.1113 C285.9653,70.2123 286.4993,70.3333 287.0463,70.4853 L287.0463,79.1343 C286.2993,78.9363 285.5653,78.7753 284.8493,78.6513 C284.1263,78.5273 283.4163,78.4633 282.7183,78.4633 C280.6303,78.4633 278.9553,78.8483 277.6873,79.6193 C276.4183,80.3903 275.4473,81.2733 274.7793,82.2683 C274.1063,83.2643 273.6573,84.2563 273.4323,85.2523 C273.2143,86.2473 273.0983,86.9903 273.0983,87.4883 L273.0983,106.6553 L264.1523,106.6553 L264.1523,70.8583 Z" id="Fill-18" fill="#474747" mask="url(#mask-2)"></path>
                <path d="M313.4174,90.6201 L311.5544,90.6201 C310.3094,90.6201 308.9144,90.6721 307.3784,90.7691 C305.8364,90.8691 304.3804,91.1061 303.0144,91.4791 C301.6424,91.8521 300.4894,92.3981 299.5424,93.1181 C298.6024,93.8401 298.1284,94.8471 298.1284,96.1401 C298.1284,96.9871 298.3164,97.6941 298.6874,98.2641 C299.0634,98.8381 299.5424,99.3201 300.1434,99.7181 C300.7384,100.1191 301.4124,100.4041 302.1524,100.5771 C302.8994,100.7531 303.6454,100.8381 304.3924,100.8381 C307.4754,100.8381 309.7514,100.1061 311.2144,98.6381 C312.6834,97.1721 313.4174,95.1691 313.4174,92.6351 L313.4174,90.6201 Z M313.9394,101.7331 L313.7144,101.7331 C312.4224,103.7721 310.7834,105.2501 308.7924,106.1701 C306.8014,107.0891 304.6164,107.5511 302.2314,107.5511 C300.5864,107.5511 298.9844,107.3261 297.4184,106.8801 C295.8524,106.4311 294.4624,105.7601 293.2424,104.8651 C292.0224,103.9701 291.0454,102.8531 290.2994,101.5081 C289.5524,100.1671 289.1764,98.6011 289.1764,96.8111 C289.1764,94.8721 289.5284,93.2181 290.2204,91.8521 C290.9184,90.4831 291.8534,89.3421 293.0184,88.4201 C294.1894,87.5001 295.5434,86.7691 297.0844,86.2201 C298.6264,85.6731 300.2284,85.2641 301.8914,84.9911 C303.5604,84.7181 305.2354,84.5421 306.9294,84.4691 C308.6164,84.3931 310.2124,84.3561 311.6994,84.3561 L313.9394,84.3561 L313.9394,83.3851 C313.9394,81.1491 313.1684,79.4711 311.6274,78.3511 C310.0854,77.2341 308.1244,76.6731 305.7334,76.6731 C303.8464,76.6731 302.0794,77.0091 300.4414,77.6801 C298.8024,78.3511 297.3824,79.2611 296.1864,80.4021 L291.4884,75.7051 C293.4794,73.6651 295.8044,72.1991 298.4624,71.3041 C301.1204,70.4091 303.8704,69.9631 306.7044,69.9631 C309.2414,69.9631 311.3784,70.2481 313.1204,70.8191 C314.8554,71.3921 316.3004,72.1241 317.4474,73.0191 C318.5884,73.9141 319.4684,74.9461 320.0934,76.1141 C320.7124,77.2831 321.1624,78.4631 321.4354,79.6561 C321.7084,80.8511 321.8724,82.0081 321.9204,83.1241 C321.9694,84.2441 321.9934,85.2271 321.9934,86.0711 L321.9934,106.6551 L313.9394,106.6551 L313.9394,101.7331 Z" id="Fill-19" fill="#474747" mask="url(#mask-2)"></path>
                <path d="M354.4828,81.595 C353.4388,80.503 352.3468,79.632 351.1988,78.985 C350.0578,78.342 348.8868,78.017 347.6968,78.017 C346.0588,78.017 344.5898,78.315 343.2968,78.912 C342.0038,79.507 340.8998,80.305 339.9768,81.298 C339.0548,82.293 338.3628,83.437 337.8888,84.73 C337.4158,86.023 337.1788,87.364 337.1788,88.757 C337.1788,90.15 337.4158,91.491 337.8888,92.784 C338.3628,94.077 339.0548,95.221 339.9768,96.213 C340.8998,97.208 342.0038,98.004 343.2968,98.601 C344.5898,99.196 346.0588,99.497 347.6968,99.497 C349.0868,99.497 350.3798,99.211 351.5758,98.638 C352.7648,98.067 353.7848,97.233 354.6348,96.14 L360.6008,102.553 C359.7028,103.448 358.6708,104.219 357.5058,104.865 C356.3338,105.511 355.1568,106.033 353.9608,106.431 C352.7648,106.828 351.6238,107.114 350.5318,107.29 C349.4328,107.463 348.4928,107.551 347.6968,107.551 C345.0088,107.551 342.4778,107.102 340.0858,106.209 C337.7008,105.314 335.6378,104.046 333.9018,102.404 C332.1598,100.762 330.7758,98.786 329.7618,96.474 C328.7428,94.165 328.2328,91.591 328.2328,88.757 C328.2328,85.922 328.7428,83.349 329.7618,81.037 C330.7758,78.724 332.1598,76.749 333.9018,75.107 C335.6378,73.468 337.7008,72.2 340.0858,71.304 C342.4778,70.409 345.0088,69.963 347.6968,69.963 C349.9858,69.963 352.2858,70.397 354.5918,71.268 C356.9048,72.139 358.9318,73.517 360.6738,75.407 L354.4828,81.595 Z" id="Fill-20" fill="#474747" mask="url(#mask-2)"></path>
                <path d="M361.6871,70.8583 L371.5321,70.8583 L381.5221,95.6913 L381.6731,95.6913 L390.6261,70.8583 L399.9481,70.8583 L383.0151,114.3363 C382.3711,116.0263 381.6611,117.5073 380.8901,118.7763 C380.1201,120.0413 379.2151,121.1123 378.1711,121.9803 C377.1211,122.8513 375.8951,123.4983 374.4751,123.9193 C373.0611,124.3413 371.3551,124.5543 369.3711,124.5543 C367.0281,124.5543 364.7461,124.2563 362.5061,123.6583 L363.6231,115.6043 C364.3211,115.8533 365.0551,116.0633 365.8261,116.2393 C366.5971,116.4123 367.3801,116.5003 368.1751,116.5003 C369.2681,116.5003 370.1901,116.4003 370.9371,116.2023 C371.6771,116.0023 372.3141,115.6923 372.8361,115.2713 C373.3581,114.8463 373.7951,114.3003 374.1411,113.6293 C374.4871,112.9583 374.8641,112.1483 375.2581,111.2043 L376.9761,106.9533 L361.6871,70.8583 Z" id="Fill-21" fill="#474747" mask="url(#mask-2)"></path>
                <path d="M29.8022,53.899 L54.4272,68.116 C56.7802,69.474 56.7802,72.87 54.4272,74.228 L29.8022,88.445 C27.4492,89.804 24.5092,88.106 24.5092,85.389 L24.5092,56.955 C24.5092,54.239 27.4492,52.541 29.8022,53.899" id="Fill-22" fill="#FEFEFE" mask="url(#mask-2)"></path>
                <path d="M112.32,47.6494 C104.92,47.6494 98.93,41.6494 98.93,34.2594 C98.93,26.8594 104.92,20.8694 112.32,20.8694 C119.71,20.8694 125.7,26.8594 125.7,34.2594 C125.7,41.6494 119.71,47.6494 112.32,47.6494 L112.32,47.6494 Z M125.8,17.2594 L125.8,22.4694 C122.52,18.7194 117.7,16.3494 112.32,16.3494 C111.94,16.3494 111.56,16.3594 111.19,16.3894 C110.94,16.3994 110.69,16.4194 110.45,16.4394 C103.12,17.2094 97.11,22.3694 95.1,29.2494 L94.92,29.9394 C94.86,30.1794 94.81,30.4094 94.76,30.6494 C94.63,31.2894 94.54,31.9394 94.48,32.6094 C94.45,32.8894 94.43,33.1794 94.42,33.4794 C94.41,33.7394 94.4,33.9994 94.4,34.2594 C94.4,34.5694 94.41,34.8794 94.42,35.1794 C94.79,42.5094 99.57,48.6694 106.16,51.0794 C106.31,51.1394 106.47,51.1894 106.63,51.2394 C106.8,51.3094 106.99,51.3594 107.17,51.4094 C107.49,51.5094 107.81,51.5994 108.14,51.6694 C109.48,51.9794 110.87,52.1494 112.32,52.1694 L112.6,52.1694 C115.14,52.1694 117.55,51.6694 119.83,50.6794 C121.04,50.1494 122.15,49.4294 123.16,48.5094 C124.13,47.7794 125.01,46.9494 125.8,46.0394 L125.8,50.4594 C125.8,52.3494 125.56,54.1294 125.09,55.7894 C124.62,57.4594 123.85,58.9094 122.78,60.1594 C121.71,61.3994 120.31,62.3794 118.57,63.0994 C116.82,63.8194 114.71,64.1894 112.23,64.1894 C109.4,64.1894 106.82,63.5994 104.51,62.4294 C102.2,61.2594 100.32,59.7094 98.88,57.7694 L95.22,61.6494 C97.46,64.0394 99.95,65.7994 102.68,66.9394 C105.41,68.0894 108.52,68.6594 112.01,68.6594 C115.93,68.6594 119.11,68.0594 121.55,66.8694 C123.99,65.6794 125.89,64.1894 127.26,62.3994 C128.62,60.5994 129.54,58.6394 130.01,56.4994 C130.49,54.3694 130.72,52.3494 130.72,50.4594 L130.72,17.2594 L125.8,17.2594 Z" id="Fill-23" fill="#474747" mask="url(#mask-2)"></path>
                <path d="M112.32,52.1695 C110.88,52.1695 109.48,51.9995 108.14,51.6695 C109.48,51.9795 110.87,52.1495 112.32,52.1695" id="Fill-24" fill="#FEFEFE" mask="url(#mask-2)"></path>
            </g>
        </g>
    </g>
</svg>